<?xml version="1.0" encoding="iso-8859-1"?>
<!-- Generator: Adobe Illustrator 19.0.0, SVG Export Plug-In . SVG Version: 6.00 Build 0)  -->
<svg version="1.1" id="Layer_1" xmlns="http://www.w3.org/2000/svg" xmlns:xlink="http://www.w3.org/1999/xlink" x="0px" y="0px"
	 viewBox="0 0 512 512" style="enable-background:new 0 0 512 512;" xml:space="preserve">
<g>
	<g>
		<g>
			<path d="M372.58,223.278H183.734v-86.402c0-12.711,5.015-24.633,14.122-33.567c9.102-8.93,21.113-13.662,33.845-13.475
				c25.44,0.482,46.136,22.036,46.136,48.046v7.123c0,24.765,20.148,44.912,44.912,44.912c24.765,0,44.912-20.148,44.912-44.912
				v-8.127c0-36.759-14.421-71.286-40.606-97.218C301.199,14.051,267.065,0,230.801,0c-0.453,0-0.91,0.003-1.364,0.006
				C154.708,0.73,93.909,62.84,93.909,138.457v84.821h-4.919c-24.41,0-44.271,19.86-44.271,44.271v200.18
				C44.72,492.14,64.58,512,88.991,512H372.58c24.41,0,44.271-19.86,44.271-44.271v-200.18
				C416.85,243.138,396.99,223.278,372.58,223.278z M119.573,138.457c0-61.603,49.396-112.2,110.112-112.789
				c0.37-0.003,0.738-0.005,1.107-0.005c29.456,0,57.191,11.421,78.203,32.229c21.281,21.075,33,49.125,33,78.983v8.128
				c0,10.613-8.635,19.248-19.248,19.248s-19.248-8.635-19.248-19.248v-7.123c0-39.896-31.992-72.959-71.313-73.705
				c-19.705-0.379-38.246,7.019-52.305,20.815c-14.065,13.802-21.812,32.228-21.812,51.888v86.401h-38.496V138.457z
				 M391.186,467.729c0,10.259-8.347,18.607-18.607,18.607H88.991c-10.259,0-18.607-8.347-18.607-18.607v-200.18
				c0-10.259,8.347-18.607,18.607-18.607H372.58c10.259,0,18.607,8.347,18.607,18.607V467.729z"/>
			<path d="M230.785,274.179c-31.604,0-57.317,25.712-57.317,57.316c0,16.23,6.931,31.648,18.821,42.446v74.326
				c0,7.086,5.745,12.832,12.832,12.832h51.328c7.087,0,12.832-5.746,12.832-12.832v-74.326
				c11.89-10.798,18.821-26.216,18.821-42.446C288.101,299.891,262.389,274.179,230.785,274.179z M249.035,357.346
				c-3.398,2.406-5.418,6.311-5.418,10.474v67.615h-25.664V367.82c0-4.163-2.02-8.068-5.418-10.474
				c-8.392-5.941-13.402-15.604-13.402-25.852c0-17.453,14.199-31.652,31.653-31.652s31.653,14.199,31.653,31.652
				C262.437,341.741,257.427,351.405,249.035,357.346z"/>
			<path d="M460.862,216.336l-44.822-25.878c-6.136-3.543-13.984-1.441-17.529,4.697c-3.544,6.138-1.441,13.984,4.697,17.529
				l44.822,25.878c2.021,1.166,4.227,1.722,6.404,1.722c4.435,0,8.748-2.302,11.124-6.419
				C469.103,227.727,466.999,219.88,460.862,216.336z"/>
			<path d="M409.635,163.076c2.176,0,4.383-0.556,6.404-1.722l44.822-25.877c6.138-3.543,8.241-11.391,4.697-17.529
				c-3.543-6.138-11.392-8.242-17.529-4.697l-44.822,25.877c-6.138,3.543-8.241,11.391-4.697,17.529
				C400.887,160.774,405.2,163.076,409.635,163.076z"/>
		</g>
	</g>
</g>
<g>
</g>
<g>
</g>
<g>
</g>
<g>
</g>
<g>
</g>
<g>
</g>
<g>
</g>
<g>
</g>
<g>
</g>
<g>
</g>
<g>
</g>
<g>
</g>
<g>
</g>
<g>
</g>
<g>
</g>
</svg>
