<svg height="393pt" viewBox="-1 0 393 393.15442" width="393pt" xmlns="http://www.w3.org/2000/svg"><path d="m342.402344 14.621094c-19.542969-19.496094-51.171875-19.496094-70.710938 0l-237.089844 237.089844c-2.886718 2.886718-3.726562 7.242187-2.121093 11l-32.050781 117.820312c-.945313 3.472656.050781 7.1875 2.605468 9.722656 2.558594 2.535156 6.28125 3.5 9.746094 2.527344l116.933594-32.867188c3.746094 1.574219 8.070312.722657 10.941406-2.148437l237.089844-237.089844c19.523437-19.527343 19.523437-51.183593 0-70.710937zm-84.601563 42.167968 77.351563 78.195313-201.570313 201.566406-77.769531-77.769531zm-209.246093 223.019532 64.121093 64.117187-88.316406 24.828125zm315.046874-173.273438-14.304687 14.304688-77.351563-78.191406 13.886719-13.882813c11.726563-11.699219 30.703125-11.699219 42.429688 0l35.34375 35.34375c11.695312 11.722656 11.695312 30.703125-.003907 42.425781zm0 0"/></svg>